<svg xmlns="http://www.w3.org/2000/svg" xmlns:xlink="http://www.w3.org/1999/xlink" enable-background="new 0 0 100 100" viewBox="0 0 100 100"><symbol id="a" viewBox="0 -24 360 24"><rect width="360" height="24" y="-24" fill="#010101" fill-opacity="0"/><rect width="40" height="16" x="312" y="-21" fill="none" opacity=".9"/><path fill="#fff" d="M266-19l8.8,10.9C274.5-7.8,271.1-5,266-5s-8.5-2.8-8.8-3.1L266-19L266-19L266-19L266-19L266-19z" opacity=".9"/><rect width="16" height="16" x="258" y="-20" fill="none"/><polygon fill="#fff" points="277 -19 291 -19 291 -5" opacity=".9"/><rect width="16" height="16" x="276" y="-20" fill="none"/><rect width="16" height="16" x="296" y="-20" fill="none"/><path fill="#fff" d="M306-6v1h-3v-1h-3v-13h9v13H306z" opacity=".9"/></symbol><polyline fill="#ffe9cf" points="78.7 89.8 69.7 89.8 69.7 58.8 78.7 58.8"/><polygon fill="#594454" points="78.7 90.3 69.2 90.3 69.2 58.3 78.7 58.3 78.7 59.3 70.2 59.3 70.2 89.3 78.7 89.3"/><rect width="2" height="31" x="69.7" y="58.8" fill="#fff" opacity=".5"/><polygon fill="#ffe9cf" points="67.7 58.8 77.7 58.8 77.7 54.8 67.7 54.8 67.7 57.3"/><rect width="2" height="4" x="67.7" y="54.8" fill="#cab5a8"/><polygon fill="#ffe9cf" points="32.7 58.8 22.7 58.8 22.7 54.8 32.7 54.8 32.7 57.8"/><rect width="2" height="4" x="30.7" y="54.8" fill="#fff" opacity=".5"/><polyline fill="#ffe9cf" points="30.7 89.8 21.7 89.8 21.7 58.8 30.7 58.8"/><polygon fill="#594454" points="30.7 90.3 21.2 90.3 21.2 58.3 30.7 58.3 30.7 59.3 22.2 59.3 22.2 89.3 30.7 89.3"/><path fill="#ffe9cf" d="M77.8,54.8l0.1-0.2c1-1.3,0.8-3.2-0.5-4.2l-4.6-3.6l-4.6,3.6c-1.3,1-1.5,2.9-0.5,4.2l0.1,0.2H77.8z"/><path fill="#594454" d="M78.1,55.3H67.6L67.3,55c-0.6-0.7-0.8-1.7-0.7-2.6c0.1-0.9,0.6-1.8,1.3-2.3l4.9-3.8l4.9,3.8    c0.7,0.6,1.2,1.4,1.3,2.3c0.1,0.9-0.1,1.8-0.7,2.6L78.1,55.3z M68.1,54.3h9.5c0.4-0.5,0.6-1.2,0.5-1.8c-0.1-0.7-0.4-1.3-0.9-1.7    l-4.3-3.4l-4.3,3.4c-0.5,0.4-0.9,1-0.9,1.7C67.5,53.2,67.7,53.8,68.1,54.3z"/><rect width="3.1" height="4" x="30.7" y="57.8" fill="#ffe9cf"/><rect width="3.1" height="22" x="30.7" y="67.8" fill="#ffe9cf"/><path fill="#cab5a8" d="M70.7,50.5l3.4-2.6l-1.3-1l-4.6,3.6c-1.3,1-1.5,2.9-0.5,4.2l0.1,0.2h2.5l-0.1-0.2    C69.2,53.4,69.4,51.5,70.7,50.5z"/><path fill="#fff" d="M74.9,50.5l-3.4-2.6l1.3-1l4.6,3.6c1.3,1,1.5,2.9,0.5,4.2l-0.1,0.2h-2.5l0.1-0.2    C76.5,53.4,76.2,51.5,74.9,50.5z" opacity=".5"/><polyline fill="#ffe9cf" points="46.7 58.8 40.8 58.8 42.7 55.8 57.7 55.8 59.8 58.8 53.7 58.8"/><polygon fill="#594454" points="60.8 59.3 53.7 59.3 53.7 58.3 58.9 58.3 57.5 56.3 43 56.3 41.7 58.3 46.7 58.3 46.7 59.3 39.9 59.3 42.5 55.3 58 55.3"/><polygon fill="#ffe9cf" points="57.8 51.8 42.8 51.8 40.8 48.8 59.8 48.8"/><path fill="#594454" d="M58.1,52.3H42.5l-2.7-4h20.9L58.1,52.3z M43.1,51.3h14.5l1.3-2H41.7L43.1,51.3z"/><rect width="15" height="2" x="42.7" y="46.8" fill="#ffe9cf"/><path fill="#ffe9cf" d="M52.2,37.8l4.2,2.2c2.3,1.3,3.2,4.2,1.5,6.7l-0.1,0.1h-15l-0.1-0.1c-1.9-2.5-0.7-5.4,1.5-6.7l4-2.1l0.2-0.1"/><path fill="#cab5a8" d="M50.4,37.8l-2,0L48.2,38l-4,2.1c-2.2,1.3-3.4,4.2-1.5,6.7h2C43.1,41.8,47,40.7,50.4,37.8z"/><path fill="#fff" d="M50.3,37.8l2,0l0.2,0.1l4,2.1c2.2,1.3,3.4,4.2,1.5,6.7h-2C57.6,41.8,53.7,40.7,50.3,37.8z" opacity=".5"/><polyline fill="#ffe9cf" points="48.2 55.8 42.7 55.8 42.7 51.8 57.7 51.8 57.7 55.8 52.2 55.8"/><polygon fill="#cab5a8" points="43.8 58.8 40.8 58.8 42.7 55.8 45.7 55.8"/><polygon fill="#cab5a8" points="45.8 51.8 42.8 51.8 40.8 48.8 43.8 48.8"/><polygon fill="#cab5a8" points="43.9 55.8 42.7 55.8 42.7 51.8 45.8 51.8 45.8 55.8 44.7 55.8"/><polygon fill="#fff" points="56.8 48.8 59.8 48.8 57.9 51.8 54.9 51.8" opacity=".5"/><polygon fill="#fff" points="54.8 55.8 57.8 55.8 59.8 58.8 56.8 58.8" opacity=".5"/><polygon fill="#fff" points="56.8 51.8 57.9 51.8 57.9 55.8 54.8 55.8 54.8 51.8 55.9 51.8" opacity=".5"/><rect width="5" height="2" x="47.7" y="35.8" fill="#ffe9cf"/><path fill="#ffe9cf" d="M48.7,35.3v-1c0-0.8,0.7-1.5,1.5-1.5h0c0.8,0,1.5,0.7,1.5,1.5v1"/><polyline fill="#ffe9cf" points="54.5 58.8 66.7 58.8 66.7 61.8 33.8 61.8 33.8 58.8 46 58.8"/><rect width="3" height="4" x="66.7" y="57.8" fill="#ffe9cf"/><polygon fill="#ffd79e" points="53.7 61.8 46.7 61.8 46.7 56.8 50.2 54.8 53.7 56.8"/><path fill="#ffe9cf" d="M22.8,54.8l-0.1-0.2c-1-1.3-0.8-3.2,0.5-4.2l4.6-3.6l4.6,3.6c1.3,1,1.5,2.9,0.5,4.2l-0.1,0.2H22.8z"/><path fill="#cab5a8" d="M25.7,50.5l3.4-2.6l-1.3-1l-4.6,3.6c-1.3,1-1.5,2.9-0.5,4.2l0.1,0.2h2.5l-0.1-0.2    C24.2,53.4,24.4,51.5,25.7,50.5z"/><path fill="#fff" d="M29.9,50.5l-3.4-2.6l1.3-1l4.6,3.6c1.3,1,1.5,2.9,0.5,4.2l-0.1,0.2h-2.5l0.1-0.2    C31.5,53.4,31.2,51.5,29.9,50.5z" opacity=".5"/><rect width="2" height="31" x="21.7" y="58.8" fill="#cab5a8"/><rect width="2" height="31" x="28.7" y="58.8" fill="#cab5a8"/><rect width="2" height="4" x="75.7" y="54.8" fill="#fff" opacity=".5"/><rect width="2" height="31" x="76.7" y="58.8" fill="#fff" opacity=".5"/><rect width="2" height="4" x="22.7" y="54.8" fill="#cab5a8"/><circle cx="26.3" cy="71.3" r="1.5" fill="#7a6a77"/><circle cx="74.3" cy="71.3" r="1.5" fill="#7a6a77"/><rect width="3" height="6" x="72.7" y="75.8" fill="#7a6a77"/><rect width="3" height="2" x="72.7" y="84.8" fill="#7a6a77"/><rect width="3" height="6" x="24.7" y="75.8" fill="#7a6a77"/><rect width="3" height="2" x="24.7" y="84.8" fill="#7a6a77"/><rect width="35" height="4" x="32.7" y="76.8" fill="#ffe9cf"/><rect width="37" height="4" x="32.7" y="67.8" fill="#ffe9cf"/><rect width="32.9" height="5" x="33.8" y="71.8" fill="#7a6a77"/><rect width="32.9" height="9" x="33.8" y="80.8" fill="#7a6a77"/><path fill="#594454" d="M66.7 72.3H33.8c-.3 0-.5-.2-.5-.5v-4c0-.3.2-.5.5-.5h32.9c.3 0 .5.2.5.5v4C67.2 72.1 67 72.3 66.7 72.3zM34.3 71.3h31.9v-3H34.3V71.3zM66.7 81.3H33.8c-.3 0-.5-.2-.5-.5v-4c0-.3.2-.5.5-.5h32.9c.3 0 .5.2.5.5v4C67.2 81.1 67 81.3 66.7 81.3zM34.3 80.3h31.9v-3H34.3V80.3z"/><rect width="43" height="3" x="28.7" y="64.8" fill="#ffe9cf"/><polygon fill="#ffe9cf" points="73.8 64.8 26.8 64.8 29.8 61.8 70.8 61.8"/><rect width="3" height="3" x="28.7" y="64.8" fill="#cab5a8"/><polygon fill="#cab5a8" points="29.8 61.8 26.8 64.8 29.8 64.8 32.8 61.8"/><rect width="3" height="3" x="68.6" y="64.8" fill="#fff" opacity=".5"/><polygon fill="#fff" points="70.5 61.8 73.5 64.8 70.5 64.8 67.5 61.8" opacity=".5"/><path fill="#594454" d="M31.2 90.3h-9.5c-.3 0-.5-.2-.5-.5v-31c0-.3.2-.5.5-.5h9c.3 0 .5.2.5.5s-.2.5-.5.5h-8.5v30h9c.3 0 .5.2.5.5S31.5 90.3 31.2 90.3zM78.7 90.3H68.2c-.3 0-.5-.2-.5-.5s.2-.5.5-.5h10v-30h-8c-.3 0-.5-.2-.5-.5s.2-.5.5-.5h8.5c.3 0 .5.2.5.5v31C79.2 90.1 79 90.3 78.7 90.3z"/><path fill="#594454" d="M33.7 62.3h-3c-.3 0-.5-.2-.5-.5v-4c0-.3.2-.5.5-.5h3c.3 0 .5.2.5.5v4C34.2 62.1 34 62.3 33.7 62.3zM31.2 61.3h2v-3h-2V61.3zM69.7 62.3h-3c-.3 0-.5-.2-.5-.5v-4c0-.3.2-.5.5-.5h3c.3 0 .5.2.5.5v4C70.2 62.1 70 62.3 69.7 62.3zM67.2 61.3h2v-3h-2V61.3z"/><path fill="#594454" d="M66.7,62.3H33.8c-0.3,0-0.5-0.2-0.5-0.5v-3c0-0.3,0.2-0.5,0.5-0.5H46c0.3,0,0.5,0.2,0.5,0.5    s-0.2,0.5-0.5,0.5H34.3v2h31.9v-2H54.5c-0.3,0-0.5-0.2-0.5-0.5s0.2-0.5,0.5-0.5h12.2c0.3,0,0.5,0.2,0.5,0.5v3    C67.2,62.1,67,62.3,66.7,62.3z"/><path fill="#594454" d="M46.7 59.3h-5.9c-.2 0-.4-.1-.4-.3s-.1-.4 0-.5l1.9-3c.2-.2.5-.3.7-.2.2.1.3.5.2.7l-1.4 2.2h5c.3 0 .5.2.5.5S47 59.3 46.7 59.3zM59.8 59.3h-6.1c-.3 0-.5-.2-.5-.5s.2-.5.5-.5h5.1l-1.5-2.2c-.2-.2-.1-.5.1-.7.2-.2.5-.1.7.1l2.1 3c.1.2.1.4 0 .5S60 59.3 59.8 59.3zM57.8 52.3h-15c-.2 0-.3-.1-.4-.2l-2-3c-.1-.2-.1-.4 0-.5.1-.2.3-.3.4-.3h19c.2 0 .4.1.4.3.1.2.1.4 0 .5l-2 3C58.1 52.3 58 52.3 57.8 52.3zM43.1 51.3h14.5l1.3-2H41.7L43.1 51.3z"/><path fill="#594454" d="M57.7,49.3h-15c-0.3,0-0.5-0.2-0.5-0.5v-2c0-0.3,0.2-0.5,0.5-0.5h15c0.3,0,0.5,0.2,0.5,0.5v2    C58.2,49.1,58,49.3,57.7,49.3z M43.2,48.3h14v-1h-14V48.3z"/><path fill="#594454" d="M57.8 47.3h-15c-.2 0-.3-.1-.4-.2L42.3 47c-.9-1.1-1.2-2.5-1-3.8.3-1.4 1.2-2.8 2.6-3.6l4.2-2.2c.2-.1.5 0 .7.2.1.2 0 .5-.2.7l-4.2 2.2c-1.1.7-1.9 1.8-2.1 2.9-.2 1 .1 2 .7 2.9h14.5c.7-1 .9-2.1.7-3.2-.3-1.1-1-2.1-2-2.6L52 38.3c-.2-.1-.3-.4-.2-.7.1-.2.4-.3.7-.2l4.2 2.2c1.3.7 2.2 1.9 2.5 3.3.3 1.4 0 2.9-.9 4.1l-.1.1C58.1 47.3 58 47.3 57.8 47.3zM57.7 56.3h-5.5c-.3 0-.5-.2-.5-.5s.2-.5.5-.5h5v-3h-14v3h5c.3 0 .5.2.5.5s-.2.5-.5.5h-5.5c-.3 0-.5-.2-.5-.5v-4c0-.3.2-.5.5-.5h15c.3 0 .5.2.5.5v4C58.2 56.1 58 56.3 57.7 56.3zM27.2 59.3h-4.5c-.3 0-.5-.2-.5-.5v-4c0-.3.2-.5.5-.5h10c.3 0 .5.2.5.5v3c0 .3-.2.5-.5.5s-.5-.2-.5-.5v-2.5h-9v3h4c.3 0 .5.2.5.5S27.5 59.3 27.2 59.3zM71.7 68.3h-43c-.3 0-.5-.2-.5-.5v-3c0-.3.2-.5.5-.5h43c.3 0 .5.2.5.5v3C72.2 68.1 72 68.3 71.7 68.3zM29.2 67.3h42v-2h-42V67.3z"/><path fill="#594454" d="M73.8,65.3h-47c-0.2,0-0.4-0.1-0.5-0.3s0-0.4,0.1-0.5l3-3c0.1-0.1,0.2-0.1,0.4-0.1h41c0.1,0,0.3,0.1,0.4,0.1    l3,3c0.1,0.1,0.2,0.4,0.1,0.5S74,65.3,73.8,65.3z M28,64.3h44.6l-2-2H30L28,64.3z"/><path fill="#594454" d="M53.7 62.3h-7c-.3 0-.5-.2-.5-.5v-5c0-.2.1-.3.3-.4l3.5-2c.2-.1.3-.1.5 0l3.5 2c.2.1.3.3.3.4v5C54.2 62.1 54 62.3 53.7 62.3zM47.2 61.3h6v-4.2l-3-1.7-3 1.7V61.3zM32.8 55.3h-10c-.2 0-.3-.1-.4-.2L22.3 55c-.6-.7-.8-1.7-.7-2.6.1-.9.6-1.8 1.3-2.3l4.6-3.6c.2-.1.4-.1.6 0l4.6 3.6c.7.6 1.2 1.4 1.3 2.3.1.9-.1 1.8-.7 2.6l-.1.2C33.1 55.3 33 55.3 32.8 55.3zM23.1 54.3h9.5c.4-.5.6-1.2.5-1.8-.1-.7-.4-1.3-.9-1.7l-4.3-3.4-4.3 3.4c-.5.4-.9 1-.9 1.7C22.5 53.2 22.7 53.8 23.1 54.3zM77.7 59.3h-4.5c-.3 0-.5-.2-.5-.5s.2-.5.5-.5h4v-3h-9v2c0 .3-.2.5-.5.5s-.5-.2-.5-.5v-2.5c0-.3.2-.5.5-.5h10c.3 0 .5.2.5.5v4C78.2 59.1 78 59.3 77.7 59.3z"/><path fill="#594454" d="M77.8 55.3h-10c-.2 0-.3-.1-.4-.2L67.3 55c-.6-.7-.8-1.7-.7-2.6.1-.9.6-1.8 1.3-2.3l4.6-3.6c.2-.1.4-.1.6 0l4.6 3.6c.7.6 1.2 1.4 1.3 2.3.1.9-.1 1.8-.7 2.6l-.1.2C78.1 55.3 78 55.3 77.8 55.3zM68.1 54.3h9.5c.4-.5.6-1.2.5-1.8-.1-.7-.4-1.3-.9-1.7l-4.3-3.4-4.3 3.4c-.5.4-.9 1-.9 1.7C67.5 53.2 67.7 53.8 68.1 54.3zM26.3 73.3c-1.1 0-2-.9-2-2s.9-2 2-2 2 .9 2 2S27.4 73.3 26.3 73.3zM26.3 70.3c-.6 0-1 .4-1 1s.4 1 1 1 1-.4 1-1S26.9 70.3 26.3 70.3zM27.7 82.3h-3c-.3 0-.5-.2-.5-.5v-6c0-.3.2-.5.5-.5h3c.3 0 .5.2.5.5v6C28.2 82.1 28 82.3 27.7 82.3zM25.2 81.3h2v-5h-2V81.3zM27.7 87.3h-3c-.3 0-.5-.2-.5-.5v-2c0-.3.2-.5.5-.5h3c.3 0 .5.2.5.5v2C28.2 87.1 28 87.3 27.7 87.3zM25.2 86.3h2v-1h-2V86.3z"/><path fill="#594454" d="M28.7 76.3h-5c-.3 0-.5-.2-.5-.5s.2-.5.5-.5h5c.3 0 .5.2.5.5S29 76.3 28.7 76.3zM74.3 73.3c-1.1 0-2-.9-2-2s.9-2 2-2 2 .9 2 2S75.4 73.3 74.3 73.3zM74.3 70.3c-.6 0-1 .4-1 1s.4 1 1 1 1-.4 1-1S74.9 70.3 74.3 70.3zM75.7 82.3h-3c-.3 0-.5-.2-.5-.5v-6c0-.3.2-.5.5-.5h3c.3 0 .5.2.5.5v6C76.2 82.1 76 82.3 75.7 82.3zM73.2 81.3h2v-5h-2V81.3zM75.7 87.3h-3c-.3 0-.5-.2-.5-.5v-2c0-.3.2-.5.5-.5h3c.3 0 .5.2.5.5v2C76.2 87.1 76 87.3 75.7 87.3zM73.2 86.3h2v-1h-2V86.3z"/><path fill="#594454" d="M76.7 76.3h-5c-.3 0-.5-.2-.5-.5s.2-.5.5-.5h5c.3 0 .5.2.5.5S77 76.3 76.7 76.3zM52.7 38.3h-5c-.3 0-.5-.2-.5-.5v-2c0-.3.2-.5.5-.5h5c.3 0 .5.2.5.5v2C53.2 38.1 53 38.3 52.7 38.3zM48.2 37.3h4v-1h-4V37.3z"/><path fill="#594454" d="M51.7,35.8c-0.3,0-0.5-0.2-0.5-0.5v-1c0-0.5-0.4-1-1-1c-0.6,0-1,0.4-1,1v1c0,0.3-0.2,0.5-0.5,0.5    s-0.5-0.2-0.5-0.5v-1c0-1.1,0.9-2,2-2c1.1,0,2,0.9,2,2v1C52.2,35.6,52,35.8,51.7,35.8z"/><defs><line id="b" x1="27.8" x2="27.8" y1="46.8" y2="45.3"/></defs><clipPath id="c"><use overflow="visible" xlink:href="#b"/></clipPath><circle cx="27.8" cy="45.3" r="1.1" fill="#f05877" clip-path="url(#c)"/><circle cx="27.8" cy="45.3" r="1.1" fill="#f05978" clip-path="url(#c)"/><circle cx="27.8" cy="45.3" r="1.1" fill="#f05a79" clip-path="url(#c)"/><circle cx="27.8" cy="45.3" r="1" fill="#f05b79" clip-path="url(#c)"/><circle cx="27.8" cy="45.3" r="1" fill="#f05c7a" clip-path="url(#c)"/><circle cx="27.8" cy="45.3" r="1" fill="#f05d7b" clip-path="url(#c)"/><circle cx="27.8" cy="45.3" r="1" fill="#f05e7c" clip-path="url(#c)"/><circle cx="27.8" cy="45.3" r="1" fill="#f05e7d" clip-path="url(#c)"/><circle cx="27.8" cy="45.3" r="1" fill="#f05f7e" clip-path="url(#c)"/><circle cx="27.8" cy="45.3" r="1" fill="#f0607e" clip-path="url(#c)"/><circle cx="27.8" cy="45.3" r="1" fill="#f0617f" clip-path="url(#c)"/><circle cx="27.8" cy="45.3" r=".9" fill="#f06280" clip-path="url(#c)"/><circle cx="27.8" cy="45.3" r=".9" fill="#f06381" clip-path="url(#c)"/><circle cx="27.8" cy="45.3" r=".9" fill="#f06382" clip-path="url(#c)"/><circle cx="27.8" cy="45.3" r=".9" fill="#f06483" clip-path="url(#c)"/><circle cx="27.8" cy="45.3" r=".9" fill="#f06583" clip-path="url(#c)"/><circle cx="27.8" cy="45.3" r=".9" fill="#f06684" clip-path="url(#c)"/><circle cx="27.8" cy="45.3" r=".9" fill="#f06785" clip-path="url(#c)"/><circle cx="27.8" cy="45.3" r=".9" fill="#f06786" clip-path="url(#c)"/><circle cx="27.8" cy="45.3" r=".8" fill="#f06887" clip-path="url(#c)"/><circle cx="27.8" cy="45.3" r=".8" fill="#f06988" clip-path="url(#c)"/><circle cx="27.8" cy="45.3" r=".8" fill="#f06a88" clip-path="url(#c)"/><circle cx="27.8" cy="45.3" r=".8" fill="#f06b89" clip-path="url(#c)"/><circle cx="27.8" cy="45.3" r=".8" fill="#f06b8a" clip-path="url(#c)"/><circle cx="27.8" cy="45.3" r=".8" fill="#f06c8b" clip-path="url(#c)"/><circle cx="27.8" cy="45.3" r=".8" fill="#f06d8c" clip-path="url(#c)"/><circle cx="27.8" cy="45.3" r=".8" fill="#f06e8d" clip-path="url(#c)"/><circle cx="27.8" cy="45.3" r=".7" fill="#f06e8d" clip-path="url(#c)"/><circle cx="27.8" cy="45.3" r=".7" fill="#f06f8e" clip-path="url(#c)"/><circle cx="27.8" cy="45.3" r=".7" fill="#f1708f" clip-path="url(#c)"/><circle cx="27.8" cy="45.3" r=".7" fill="#f17190" clip-path="url(#c)"/><circle cx="27.8" cy="45.3" r=".7" fill="#f17191" clip-path="url(#c)"/><circle cx="27.8" cy="45.3" r=".7" fill="#f17291" clip-path="url(#c)"/><circle cx="27.8" cy="45.3" r=".7" fill="#f17392" clip-path="url(#c)"/><circle cx="27.8" cy="45.3" r=".7" fill="#f17393" clip-path="url(#c)"/><circle cx="27.8" cy="45.3" r=".6" fill="#f17494" clip-path="url(#c)"/><circle cx="27.8" cy="45.3" r=".6" fill="#f17595" clip-path="url(#c)"/><circle cx="27.8" cy="45.3" r=".6" fill="#f17695" clip-path="url(#c)"/><circle cx="27.8" cy="45.3" r=".6" fill="#f17696" clip-path="url(#c)"/><circle cx="27.8" cy="45.3" r=".6" fill="#f17797" clip-path="url(#c)"/><circle cx="27.8" cy="45.3" r=".6" fill="#f17898" clip-path="url(#c)"/><circle cx="27.8" cy="45.3" r=".6" fill="#f17899" clip-path="url(#c)"/><circle cx="27.8" cy="45.3" r=".6" fill="#f17999" clip-path="url(#c)"/><circle cx="27.8" cy="45.3" r=".5" fill="#f1799a" clip-path="url(#c)"/><circle cx="27.8" cy="45.3" r=".5" fill="#f17a9b" clip-path="url(#c)"/><circle cx="27.8" cy="45.3" r=".5" fill="#f17b9c" clip-path="url(#c)"/><circle cx="27.8" cy="45.3" r=".5" fill="#f17b9d" clip-path="url(#c)"/><circle cx="27.8" cy="45.3" r=".5" fill="#f17c9d" clip-path="url(#c)"/><circle cx="27.8" cy="45.3" r=".5" fill="#f17d9e" clip-path="url(#c)"/><circle cx="27.8" cy="45.3" r=".5" fill="#f17d9f" clip-path="url(#c)"/><circle cx="27.8" cy="45.3" r=".5" fill="#f17ea0" clip-path="url(#c)"/><circle cx="27.8" cy="45.3" r=".4" fill="#f17ea1" clip-path="url(#c)"/><circle cx="27.8" cy="45.3" r=".4" fill="#f17fa1" clip-path="url(#c)"/><circle cx="27.8" cy="45.3" r=".4" fill="#f180a2" clip-path="url(#c)"/><circle cx="27.8" cy="45.3" r=".4" fill="#f180a3" clip-path="url(#c)"/><circle cx="27.8" cy="45.3" r=".4" fill="#f181a4" clip-path="url(#c)"/><circle cx="27.8" cy="45.3" r=".4" fill="#f181a4" clip-path="url(#c)"/><circle cx="27.8" cy="45.3" r=".4" fill="#f182a5" clip-path="url(#c)"/><circle cx="27.8" cy="45.3" r=".4" fill="#f183a6" clip-path="url(#c)"/><circle cx="27.8" cy="45.3" r=".3" fill="#f183a7" clip-path="url(#c)"/><circle cx="27.8" cy="45.3" r=".3" fill="#f184a8" clip-path="url(#c)"/><circle cx="27.8" cy="45.3" r=".3" fill="#f184a8" clip-path="url(#c)"/><circle cx="27.8" cy="45.3" r=".3" fill="#f185a9" clip-path="url(#c)"/><circle cx="27.8" cy="45.3" r=".3" fill="#f185aa" clip-path="url(#c)"/><circle cx="27.8" cy="45.3" r=".3" fill="#f186ab" clip-path="url(#c)"/><circle cx="27.8" cy="45.3" r=".3" fill="#f187ab" clip-path="url(#c)"/><circle cx="27.8" cy="45.3" r=".3" fill="#f187ac" clip-path="url(#c)"/><circle cx="27.8" cy="45.3" r=".2" fill="#f188ad" clip-path="url(#c)"/><circle cx="27.8" cy="45.3" r=".2" fill="#f188ad" clip-path="url(#c)"/><circle cx="27.8" cy="45.3" r=".2" fill="#f189ae" clip-path="url(#c)"/><circle cx="27.8" cy="45.3" r=".2" fill="#f189af" clip-path="url(#c)"/><circle cx="27.8" cy="45.3" r=".2" fill="#f18ab0" clip-path="url(#c)"/><circle cx="27.8" cy="45.3" r=".2" fill="#f18ab0" clip-path="url(#c)"/><circle cx="27.8" cy="45.3" r=".2" fill="#f18bb1" clip-path="url(#c)"/><circle cx="27.8" cy="45.3" r=".2" fill="#f18bb2" clip-path="url(#c)"/><circle cx="27.8" cy="45.3" r=".1" fill="#f18cb2" clip-path="url(#c)"/><circle cx="27.8" cy="45.3" r=".1" fill="#f18cb3" clip-path="url(#c)"/><circle cx="27.8" cy="45.3" r=".1" fill="#f18db4" clip-path="url(#c)"/><circle cx="27.8" cy="45.3" r=".1" fill="#f18db4" clip-path="url(#c)"/><circle cx="27.8" cy="45.3" r=".1" fill="#f18eb5" clip-path="url(#c)"/><circle cx="27.8" cy="45.3" r=".1" fill="#f18eb6" clip-path="url(#c)"/><circle cx="27.8" cy="45.3" r=".1" fill="#f18eb6" clip-path="url(#c)"/><circle cx="27.8" cy="45.3" r=".1" fill="#f18fb7" clip-path="url(#c)"/><circle cx="27.8" cy="45.3" r="0" fill="#f18fb7" clip-path="url(#c)"/><circle cx="27.8" cy="45.3" r="0" fill="#f18fb8" clip-path="url(#c)"/><circle cx="27.8" cy="45.3" r="0" fill="#f190b8" clip-path="url(#c)"/><path fill="#594454" d="M27.8,47.3c-0.3,0-0.5-0.2-0.5-0.5v-1.6c0-0.3,0.2-0.5,0.5-0.5s0.5,0.2,0.5,0.5v1.6    C28.3,47.1,28.1,47.3,27.8,47.3z"/><defs><line id="d" x1="72.8" x2="72.8" y1="46.8" y2="45.3"/></defs><clipPath id="e"><use overflow="visible" xlink:href="#d"/></clipPath><circle cx="72.8" cy="45.3" r="1.1" fill="#f05877" clip-path="url(#e)"/><circle cx="72.8" cy="45.3" r="1.1" fill="#f05978" clip-path="url(#e)"/><circle cx="72.8" cy="45.3" r="1.1" fill="#f05a79" clip-path="url(#e)"/><circle cx="72.8" cy="45.3" r="1" fill="#f05b79" clip-path="url(#e)"/><circle cx="72.8" cy="45.3" r="1" fill="#f05c7a" clip-path="url(#e)"/><circle cx="72.8" cy="45.3" r="1" fill="#f05d7b" clip-path="url(#e)"/><circle cx="72.8" cy="45.3" r="1" fill="#f05e7c" clip-path="url(#e)"/><circle cx="72.8" cy="45.3" r="1" fill="#f05e7d" clip-path="url(#e)"/><circle cx="72.8" cy="45.3" r="1" fill="#f05f7e" clip-path="url(#e)"/><circle cx="72.8" cy="45.3" r="1" fill="#f0607e" clip-path="url(#e)"/><circle cx="72.8" cy="45.3" r="1" fill="#f0617f" clip-path="url(#e)"/><circle cx="72.8" cy="45.3" r=".9" fill="#f06280" clip-path="url(#e)"/><circle cx="72.8" cy="45.3" r=".9" fill="#f06381" clip-path="url(#e)"/><circle cx="72.8" cy="45.3" r=".9" fill="#f06382" clip-path="url(#e)"/><circle cx="72.8" cy="45.3" r=".9" fill="#f06483" clip-path="url(#e)"/><circle cx="72.8" cy="45.3" r=".9" fill="#f06583" clip-path="url(#e)"/><circle cx="72.8" cy="45.3" r=".9" fill="#f06684" clip-path="url(#e)"/><circle cx="72.8" cy="45.3" r=".9" fill="#f06785" clip-path="url(#e)"/><circle cx="72.8" cy="45.3" r=".9" fill="#f06786" clip-path="url(#e)"/><circle cx="72.8" cy="45.3" r=".8" fill="#f06887" clip-path="url(#e)"/><circle cx="72.8" cy="45.3" r=".8" fill="#f06988" clip-path="url(#e)"/><circle cx="72.8" cy="45.3" r=".8" fill="#f06a88" clip-path="url(#e)"/><circle cx="72.8" cy="45.3" r=".8" fill="#f06b89" clip-path="url(#e)"/><circle cx="72.8" cy="45.3" r=".8" fill="#f06b8a" clip-path="url(#e)"/><circle cx="72.8" cy="45.3" r=".8" fill="#f06c8b" clip-path="url(#e)"/><circle cx="72.8" cy="45.3" r=".8" fill="#f06d8c" clip-path="url(#e)"/><circle cx="72.8" cy="45.3" r=".8" fill="#f06e8d" clip-path="url(#e)"/><circle cx="72.8" cy="45.3" r=".7" fill="#f06e8d" clip-path="url(#e)"/><circle cx="72.8" cy="45.3" r=".7" fill="#f06f8e" clip-path="url(#e)"/><circle cx="72.8" cy="45.3" r=".7" fill="#f1708f" clip-path="url(#e)"/><circle cx="72.8" cy="45.3" r=".7" fill="#f17190" clip-path="url(#e)"/><circle cx="72.8" cy="45.3" r=".7" fill="#f17191" clip-path="url(#e)"/><circle cx="72.8" cy="45.3" r=".7" fill="#f17291" clip-path="url(#e)"/><circle cx="72.8" cy="45.3" r=".7" fill="#f17392" clip-path="url(#e)"/><circle cx="72.8" cy="45.3" r=".7" fill="#f17393" clip-path="url(#e)"/><circle cx="72.8" cy="45.3" r=".6" fill="#f17494" clip-path="url(#e)"/><circle cx="72.8" cy="45.3" r=".6" fill="#f17595" clip-path="url(#e)"/><circle cx="72.8" cy="45.3" r=".6" fill="#f17695" clip-path="url(#e)"/><circle cx="72.8" cy="45.3" r=".6" fill="#f17696" clip-path="url(#e)"/><circle cx="72.8" cy="45.3" r=".6" fill="#f17797" clip-path="url(#e)"/><circle cx="72.8" cy="45.3" r=".6" fill="#f17898" clip-path="url(#e)"/><circle cx="72.8" cy="45.3" r=".6" fill="#f17899" clip-path="url(#e)"/><circle cx="72.8" cy="45.3" r=".6" fill="#f17999" clip-path="url(#e)"/><circle cx="72.8" cy="45.3" r=".5" fill="#f1799a" clip-path="url(#e)"/><circle cx="72.8" cy="45.3" r=".5" fill="#f17a9b" clip-path="url(#e)"/><circle cx="72.8" cy="45.3" r=".5" fill="#f17b9c" clip-path="url(#e)"/><circle cx="72.8" cy="45.3" r=".5" fill="#f17b9d" clip-path="url(#e)"/><circle cx="72.8" cy="45.3" r=".5" fill="#f17c9d" clip-path="url(#e)"/><circle cx="72.8" cy="45.3" r=".5" fill="#f17d9e" clip-path="url(#e)"/><circle cx="72.8" cy="45.3" r=".5" fill="#f17d9f" clip-path="url(#e)"/><circle cx="72.8" cy="45.3" r=".5" fill="#f17ea0" clip-path="url(#e)"/><circle cx="72.8" cy="45.3" r=".4" fill="#f17ea1" clip-path="url(#e)"/><circle cx="72.8" cy="45.3" r=".4" fill="#f17fa1" clip-path="url(#e)"/><circle cx="72.8" cy="45.3" r=".4" fill="#f180a2" clip-path="url(#e)"/><circle cx="72.8" cy="45.3" r=".4" fill="#f180a3" clip-path="url(#e)"/><circle cx="72.8" cy="45.3" r=".4" fill="#f181a4" clip-path="url(#e)"/><circle cx="72.8" cy="45.3" r=".4" fill="#f181a4" clip-path="url(#e)"/><circle cx="72.8" cy="45.3" r=".4" fill="#f182a5" clip-path="url(#e)"/><circle cx="72.8" cy="45.3" r=".4" fill="#f183a6" clip-path="url(#e)"/><circle cx="72.8" cy="45.3" r=".3" fill="#f183a7" clip-path="url(#e)"/><circle cx="72.8" cy="45.3" r=".3" fill="#f184a8" clip-path="url(#e)"/><circle cx="72.8" cy="45.3" r=".3" fill="#f184a8" clip-path="url(#e)"/><circle cx="72.8" cy="45.3" r=".3" fill="#f185a9" clip-path="url(#e)"/><circle cx="72.8" cy="45.3" r=".3" fill="#f185aa" clip-path="url(#e)"/><circle cx="72.8" cy="45.3" r=".3" fill="#f186ab" clip-path="url(#e)"/><circle cx="72.8" cy="45.3" r=".3" fill="#f187ab" clip-path="url(#e)"/><circle cx="72.8" cy="45.3" r=".3" fill="#f187ac" clip-path="url(#e)"/><circle cx="72.8" cy="45.3" r=".2" fill="#f188ad" clip-path="url(#e)"/><circle cx="72.8" cy="45.3" r=".2" fill="#f188ad" clip-path="url(#e)"/><circle cx="72.8" cy="45.3" r=".2" fill="#f189ae" clip-path="url(#e)"/><circle cx="72.8" cy="45.3" r=".2" fill="#f189af" clip-path="url(#e)"/><circle cx="72.8" cy="45.3" r=".2" fill="#f18ab0" clip-path="url(#e)"/><circle cx="72.8" cy="45.3" r=".2" fill="#f18ab0" clip-path="url(#e)"/><circle cx="72.8" cy="45.3" r=".2" fill="#f18bb1" clip-path="url(#e)"/><circle cx="72.8" cy="45.3" r=".2" fill="#f18bb2" clip-path="url(#e)"/><circle cx="72.8" cy="45.3" r=".1" fill="#f18cb2" clip-path="url(#e)"/><circle cx="72.8" cy="45.3" r=".1" fill="#f18cb3" clip-path="url(#e)"/><circle cx="72.8" cy="45.3" r=".1" fill="#f18db4" clip-path="url(#e)"/><circle cx="72.8" cy="45.3" r=".1" fill="#f18db4" clip-path="url(#e)"/><circle cx="72.8" cy="45.3" r=".1" fill="#f18eb5" clip-path="url(#e)"/><circle cx="72.8" cy="45.3" r=".1" fill="#f18eb6" clip-path="url(#e)"/><circle cx="72.8" cy="45.3" r=".1" fill="#f18eb6" clip-path="url(#e)"/><circle cx="72.8" cy="45.3" r=".1" fill="#f18fb7" clip-path="url(#e)"/><circle cx="72.8" cy="45.3" r="0" fill="#f18fb7" clip-path="url(#e)"/><circle cx="72.8" cy="45.3" r="0" fill="#f18fb8" clip-path="url(#e)"/><circle cx="72.8" cy="45.3" r="0" fill="#f190b8" clip-path="url(#e)"/><path fill="#594454" d="M72.8,47.3c-0.3,0-0.5-0.2-0.5-0.5v-1.6c0-0.3,0.2-0.5,0.5-0.5s0.5,0.2,0.5,0.5v1.6    C73.3,47.1,73.1,47.3,72.8,47.3z"/><g><path fill="#594454" d="M43.8,59.3c-0.1,0-0.2,0-0.3-0.1c-0.2-0.1-0.3-0.5-0.2-0.7l1.8-2.9l0.1-3.7l-1.9-2.9    c-0.2-0.2-0.1-0.5,0.1-0.7c0.2-0.2,0.5-0.1,0.7,0.1l2,3c0.1,0.1,0.1,0.2,0.1,0.3l-0.1,4c0,0.1,0,0.2-0.1,0.3l-1.9,3    C44.1,59.3,44,59.3,43.8,59.3z"/></g><g><path fill="#594454" d="M56.8,59.3c-0.2,0-0.3-0.1-0.4-0.2l-2-3c-0.1-0.1-0.1-0.2-0.1-0.3l0.1-4c0-0.1,0-0.2,0.1-0.3l1.9-3    c0.1-0.2,0.5-0.3,0.7-0.2c0.2,0.1,0.3,0.5,0.2,0.7L55.4,52l-0.1,3.7l1.9,2.9c0.2,0.2,0.1,0.5-0.1,0.7C57,59.3,56.9,59.3,56.8,59.3    z"/></g><g><rect width="3.1" height="22" x="30.7" y="67.8" fill="#ffe9cf"/><path fill="#594454" d="M34.3,90.3h-4.1v-23h4.1V90.3z M31.2,89.3h2.1v-21h-2.1V89.3z"/></g><g><rect width="3.1" height="22" x="43.6" y="67.8" fill="#ffe9cf"/><path fill="#594454" d="M47.2,90.3h-4.1v-23h4.1V90.3z M44.1,89.3h2.1v-21h-2.1V89.3z"/></g><g><rect width="3.1" height="22" x="37.2" y="67.8" fill="#ffe9cf"/><path fill="#594454" d="M40.8,90.3h-4.1v-23h4.1V90.3z M37.7,89.3h2.1v-21h-2.1V89.3z"/></g><g><rect width="3.1" height="22" x="66.7" y="67.8" fill="#ffe9cf"/><path fill="#594454" d="M70.3,90.3h-4.1v-23h4.1V90.3z M67.2,89.3h2.1v-21h-2.1V89.3z"/></g><g><rect width="3.1" height="22" x="60.2" y="67.8" fill="#ffe9cf"/><path fill="#594454" d="M63.8,90.3h-4.1v-23h4.1V90.3z M60.7,89.3h2.1v-21h-2.1V89.3z"/></g><g><rect width="3.1" height="22" x="53.7" y="67.8" fill="#ffe9cf"/><path fill="#594454" d="M57.3,90.3h-4.1v-23h4.1V90.3z M54.2,89.3h2.1v-21h-2.1V89.3z"/></g><g><path fill="#594454" d="M51.7,47c-0.3,0-0.5-0.2-0.5-0.5v-1.3c0-0.5-0.3-1-0.7-1.3l-0.3-0.2l-0.3,0.2c-0.4,0.3-0.7,0.7-0.7,1.3v1.3    c0,0.3-0.2,0.5-0.5,0.5s-0.5-0.2-0.5-0.5v-1.3c0-0.9,0.4-1.6,1.1-2.1l0.6-0.4c0.2-0.1,0.4-0.1,0.5,0l0.6,0.4    c0.7,0.5,1.2,1.3,1.2,2.1v1.3C52.2,46.8,52,47,51.7,47z"/></g><g><path fill="#594454" d="M80.8,90.3h-61c-0.3,0-0.5-0.2-0.5-0.5s0.2-0.5,0.5-0.5h61c0.3,0,0.5,0.2,0.5,0.5S81,90.3,80.8,90.3z"/></g></svg>